# xmcd
# 
# Track frame offsets:
#     150
#     88870
#     114480
#     143319
# 
# Disc length: 2937
# 
# Revision: 0
# Processed by: cddbd v1.5.2PL0 Copyright (c) Steve Scherf et al.
# Submitted via: BonkEnc v1.0.8
# 
DISCID=290b7704
DTITLE=Merzbow - Suzume: 13 Japanese Birds, Pt. 1
DYEAR=2009
DGENRE=Noise
TTITLE0=Red Bird of Summer Pt. 1
TTITLE1=Fandangos in Space
TTITLE2=Tori Uta
TTITLE3=Red Bird of Summer Pt. 2
EXTD=
EXTT0=
EXTT1=
EXTT2=
EXTT3=
PLAYORDER=
